# MagicaVoxel @ Ephtracy

# group
o 

# material
mtllib Guy.mtl
usemtl palette

# normals
vn -1 0 0
vn 1 0 0
vn 0 0 1
vn 0 0 -1
vn 0 -1 0
vn 0 1 0

# texcoords
vt 0.0292969 0.5
vt 0.533203 0.5
vt 0.779297 0.5
vt 0.978516 0.5
vt 0.994141 0.5

# verts
v -1 0.3 0.2
v -1 0.3 -0.1
v -1 0.4 0.2
v -1 0.4 -0.1
v -0.9 0.2 0.2
v -0.9 0.2 -0.1
v -0.9 0.3 0.2
v -0.9 0.3 -0.1
v -0.3 -1 0.4
v -0.3 -1 -0.1
v -0.3 -0.9 0.4
v -0.3 -0.9 0.3
v -0.3 -0.8 0.3
v -0.3 -0.8 0.2
v -0.3 -0.8 -0.1
v -0.3 -0.3 0.2
v -0.3 -0.3 -0.1
v -0.3 -0.2 0.2
v -0.3 -0.2 -0.1
v -0.3 0.2 0.2
v -0.3 0.2 -0.1
v -0.3 0.4 0.2
v -0.3 0.4 -0.1
v -0.3 0.5 0.2
v -0.3 0.5 -0.1
v -0.2 0.6 0.2
v -0.2 0.6 -0.1
v -0.2 1 0.2
v -0.2 1 -0.1
v -0.1 0.5 0.1
v -0.1 0.5 -0.1
v -0.1 0.6 0.1
v -0.1 0.6 -0.1
v 0.1 -1 0.4
v 0.1 -1 -0.1
v 0.1 -0.9 0.4
v 0.1 -0.9 0.3
v 0.1 -0.8 0.3
v 0.1 -0.8 0.2
v 0.1 -0.8 -0.1
v 0.1 -0.5 0.2
v 0.1 -0.5 -0.1
v 0 -1 0.4
v 0 -1 -0.1
v 0 -0.9 0.4
v 0 -0.9 0.3
v 0 -0.8 0.3
v 0 -0.8 0.2
v 0 -0.8 -0.1
v 0 -0.5 0.2
v 0 -0.5 -0.1
v 0.2 0.5 0.1
v 0.2 0.5 -0.1
v 0.2 0.6 0.1
v 0.2 0.6 -0.1
v 0.3 0.6 0.2
v 0.3 0.6 -0.1
v 0.3 1 0.2
v 0.3 1 -0.1
v 0.4 -1 0.4
v 0.4 -1 -0.1
v 0.4 -0.9 0.4
v 0.4 -0.9 0.3
v 0.4 -0.8 0.3
v 0.4 -0.8 0.2
v 0.4 -0.8 -0.1
v 0.4 -0.3 0.2
v 0.4 -0.3 -0.1
v 0.4 -0.2 0.2
v 0.4 -0.2 -0.1
v 0.4 0.2 0.2
v 0.4 0.2 -0.1
v 0.4 0.4 0.2
v 0.4 0.4 -0.1
v 0.4 0.5 0.2
v 0.4 0.5 -0.1
v 1 0.2 0.2
v 1 0.2 -0.1
v 1 0.3 0.2
v 1 0.3 -0.1
v 1.1 0.3 0.2
v 1.1 0.3 -0.1
v 1.1 0.4 0.2
v 1.1 0.4 -0.1
v -0.3 -1 0.4
v -0.3 -0.9 0.4
v 0 -1 0.4
v 0 -0.9 0.4
v 0.1 -1 0.4
v 0.1 -0.9 0.4
v 0.4 -1 0.4
v 0.4 -0.9 0.4
v -0.3 -0.9 0.3
v -0.3 -0.8 0.3
v 0 -0.9 0.3
v 0 -0.8 0.3
v 0.1 -0.9 0.3
v 0.1 -0.8 0.3
v 0.4 -0.9 0.3
v 0.4 -0.8 0.3
v -1 0.3 0.2
v -1 0.4 0.2
v -0.9 0.2 0.2
v -0.9 0.3 0.2
v -0.8 0.2 0.2
v -0.8 0.4 0.2
v -0.3 -0.8 0.2
v -0.3 -0.3 0.2
v -0.3 -0.2 0.2
v -0.3 0.2 0.2
v -0.3 0.4 0.2
v -0.3 0.5 0.2
v -0.2 0.6 0.2
v -0.2 1 0.2
v -0.1 0.8 0.2
v -0.1 0.9 0.2
v 0 -0.8 0.2
v 0 -0.5 0.2
v 0 0.8 0.2
v 0 0.9 0.2
v 0.1 -0.8 0.2
v 0.1 -0.5 0.2
v 0.1 0.8 0.2
v 0.1 0.9 0.2
v 0.2 0.8 0.2
v 0.2 0.9 0.2
v 0.3 0.6 0.2
v 0.3 1 0.2
v 0.4 -0.8 0.2
v 0.4 -0.3 0.2
v 0.4 -0.2 0.2
v 0.4 0.2 0.2
v 0.4 0.4 0.2
v 0.4 0.5 0.2
v 0.9 0.2 0.2
v 0.9 0.4 0.2
v 1 0.2 0.2
v 1 0.3 0.2
v 1.1 0.3 0.2
v 1.1 0.4 0.2
v -0.1 0.5 0.1
v -0.1 0.6 0.1
v 0.2 0.5 0.1
v 0.2 0.6 0.1
v -1 0.3 -0.1
v -1 0.4 -0.1
v -0.9 0.2 -0.1
v -0.9 0.3 -0.1
v -0.8 0.2 -0.1
v -0.8 0.4 -0.1
v -0.3 -1 -0.1
v -0.3 -0.8 -0.1
v -0.3 -0.3 -0.1
v -0.3 -0.2 -0.1
v -0.3 0.2 -0.1
v -0.3 0.4 -0.1
v -0.3 0.5 -0.1
v -0.2 0.6 -0.1
v -0.2 1 -0.1
v -0.1 0.5 -0.1
v -0.1 0.6 -0.1
v 0 -1 -0.1
v 0 -0.8 -0.1
v 0 -0.5 -0.1
v 0.1 -1 -0.1
v 0.1 -0.8 -0.1
v 0.1 -0.5 -0.1
v 0.2 0.5 -0.1
v 0.2 0.6 -0.1
v 0.3 0.6 -0.1
v 0.3 1 -0.1
v 0.4 -1 -0.1
v 0.4 -0.8 -0.1
v 0.4 -0.3 -0.1
v 0.4 -0.2 -0.1
v 0.4 0.2 -0.1
v 0.4 0.4 -0.1
v 0.4 0.5 -0.1
v 0.9 0.2 -0.1
v 0.9 0.4 -0.1
v 1 0.2 -0.1
v 1 0.3 -0.1
v 1.1 0.3 -0.1
v 1.1 0.4 -0.1
v -0.3 -1 0.4
v 0 -1 0.4
v 0.1 -1 0.4
v 0.4 -1 0.4
v -0.3 -1 -0.1
v 0 -1 -0.1
v 0.1 -1 -0.1
v 0.4 -1 -0.1
v 0 -0.5 0.2
v 0.1 -0.5 0.2
v 0 -0.5 -0.1
v 0.1 -0.5 -0.1
v -0.9 0.2 0.2
v -0.8 0.2 0.2
v -0.3 0.2 0.2
v 0.4 0.2 0.2
v 0.9 0.2 0.2
v 1 0.2 0.2
v -0.9 0.2 -0.1
v -0.8 0.2 -0.1
v -0.3 0.2 -0.1
v 0.4 0.2 -0.1
v 0.9 0.2 -0.1
v 1 0.2 -0.1
v -1 0.3 0.2
v -0.9 0.3 0.2
v 1 0.3 0.2
v 1.1 0.3 0.2
v -1 0.3 -0.1
v -0.9 0.3 -0.1
v 1 0.3 -0.1
v 1.1 0.3 -0.1
v -0.2 0.6 0.2
v 0.3 0.6 0.2
v -0.1 0.6 0.1
v 0.2 0.6 0.1
v -0.2 0.6 -0.1
v -0.1 0.6 -0.1
v 0.2 0.6 -0.1
v 0.3 0.6 -0.1
v -0.3 -0.9 0.4
v 0 -0.9 0.4
v 0.1 -0.9 0.4
v 0.4 -0.9 0.4
v -0.3 -0.9 0.3
v 0 -0.9 0.3
v 0.1 -0.9 0.3
v 0.4 -0.9 0.3
v -0.3 -0.8 0.3
v 0 -0.8 0.3
v 0.1 -0.8 0.3
v 0.4 -0.8 0.3
v -0.3 -0.8 0.2
v 0 -0.8 0.2
v 0.1 -0.8 0.2
v 0.4 -0.8 0.2
v -1 0.4 0.2
v -0.8 0.4 0.2
v -0.3 0.4 0.2
v 0.4 0.4 0.2
v 0.9 0.4 0.2
v 1.1 0.4 0.2
v -1 0.4 -0.1
v -0.8 0.4 -0.1
v -0.3 0.4 -0.1
v 0.4 0.4 -0.1
v 0.9 0.4 -0.1
v 1.1 0.4 -0.1
v -0.3 0.5 0.2
v 0.4 0.5 0.2
v -0.1 0.5 0.1
v 0.2 0.5 0.1
v -0.3 0.5 -0.1
v -0.1 0.5 -0.1
v 0.2 0.5 -0.1
v 0.4 0.5 -0.1
v -0.2 1 0.2
v 0.3 1 0.2
v -0.2 1 -0.1
v 0.3 1 -0.1

# faces
f 3/1/1 2/1/1 1/1/1
f 4/1/1 2/1/1 3/1/1
f 7/1/1 6/1/1 5/1/1
f 8/1/1 6/1/1 7/1/1
f 11/5/1 10/5/1 9/5/1
f 12/5/1 10/5/1 11/5/1
f 13/5/1 10/5/1 12/5/1
f 14/5/1 10/5/1 13/5/1
f 15/5/1 10/5/1 14/5/1
f 16/4/1 15/4/1 14/4/1
f 17/4/1 15/4/1 16/4/1
f 18/2/1 17/2/1 16/2/1
f 19/2/1 17/2/1 18/2/1
f 20/3/1 19/3/1 18/3/1
f 21/3/1 19/3/1 20/3/1
f 24/3/1 23/3/1 22/3/1
f 25/3/1 23/3/1 24/3/1
f 28/1/1 27/1/1 26/1/1
f 29/1/1 27/1/1 28/1/1
f 32/1/1 31/1/1 30/1/1
f 33/1/1 31/1/1 32/1/1
f 36/5/1 35/5/1 34/5/1
f 37/5/1 35/5/1 36/5/1
f 38/5/1 35/5/1 37/5/1
f 39/5/1 35/5/1 38/5/1
f 40/5/1 35/5/1 39/5/1
f 41/4/1 40/4/1 39/4/1
f 42/4/1 40/4/1 41/4/1
f 43/5/2 44/5/2 45/5/2
f 45/5/2 44/5/2 46/5/2
f 46/5/2 44/5/2 47/5/2
f 47/5/2 44/5/2 48/5/2
f 48/5/2 44/5/2 49/5/2
f 48/4/2 49/4/2 50/4/2
f 50/4/2 49/4/2 51/4/2
f 52/1/2 53/1/2 54/1/2
f 54/1/2 53/1/2 55/1/2
f 56/1/2 57/1/2 58/1/2
f 58/1/2 57/1/2 59/1/2
f 60/5/2 61/5/2 62/5/2
f 62/5/2 61/5/2 63/5/2
f 63/5/2 61/5/2 64/5/2
f 64/5/2 61/5/2 65/5/2
f 65/5/2 61/5/2 66/5/2
f 65/4/2 66/4/2 67/4/2
f 67/4/2 66/4/2 68/4/2
f 67/2/2 68/2/2 69/2/2
f 69/2/2 68/2/2 70/2/2
f 69/3/2 70/3/2 71/3/2
f 71/3/2 70/3/2 72/3/2
f 73/3/2 74/3/2 75/3/2
f 75/3/2 74/3/2 76/3/2
f 77/1/2 78/1/2 79/1/2
f 79/1/2 78/1/2 80/1/2
f 81/1/2 82/1/2 83/1/2
f 83/1/2 82/1/2 84/1/2
f 87/5/3 86/5/3 85/5/3
f 88/5/3 86/5/3 87/5/3
f 91/5/3 90/5/3 89/5/3
f 92/5/3 90/5/3 91/5/3
f 95/5/3 94/5/3 93/5/3
f 96/5/3 94/5/3 95/5/3
f 99/5/3 98/5/3 97/5/3
f 100/5/3 98/5/3 99/5/3
f 104/1/3 102/1/3 101/1/3
f 105/1/3 104/1/3 103/1/3
f 106/1/3 102/1/3 104/1/3
f 106/1/3 104/1/3 105/1/3
f 110/3/3 106/3/3 105/3/3
f 111/3/3 106/3/3 110/3/3
f 115/1/3 114/1/3 113/1/3
f 116/1/3 114/1/3 115/1/3
f 117/4/3 108/4/3 107/4/3
f 118/4/3 108/4/3 117/4/3
f 119/1/3 115/1/3 113/1/3
f 119/5/3 116/5/3 115/5/3
f 120/1/3 114/1/3 116/1/3
f 120/5/3 116/5/3 119/5/3
f 122/4/3 108/4/3 118/4/3
f 123/1/3 119/1/3 113/1/3
f 123/1/3 120/1/3 119/1/3
f 124/1/3 114/1/3 120/1/3
f 124/1/3 120/1/3 123/1/3
f 125/1/3 123/1/3 113/1/3
f 125/5/3 124/5/3 123/5/3
f 126/1/3 114/1/3 124/1/3
f 126/5/3 124/5/3 125/5/3
f 127/1/3 125/1/3 113/1/3
f 127/1/3 126/1/3 125/1/3
f 128/1/3 114/1/3 126/1/3
f 128/1/3 126/1/3 127/1/3
f 129/4/3 122/4/3 121/4/3
f 130/2/3 109/2/3 108/2/3
f 130/4/3 122/4/3 129/4/3
f 130/4/3 108/4/3 122/4/3
f 131/3/3 111/3/3 110/3/3
f 131/2/3 109/2/3 130/2/3
f 131/3/3 110/3/3 109/3/3
f 131/3/3 112/3/3 111/3/3
f 132/3/3 112/3/3 131/3/3
f 133/3/3 112/3/3 132/3/3
f 134/3/3 112/3/3 133/3/3
f 135/3/3 133/3/3 132/3/3
f 136/3/3 133/3/3 135/3/3
f 137/1/3 136/1/3 135/1/3
f 138/1/3 136/1/3 137/1/3
f 139/1/3 136/1/3 138/1/3
f 140/1/3 136/1/3 139/1/3
f 143/1/3 142/1/3 141/1/3
f 144/1/3 142/1/3 143/1/3
f 145/1/4 146/1/4 148/1/4
f 147/1/4 148/1/4 149/1/4
f 148/1/4 146/1/4 150/1/4
f 149/1/4 148/1/4 150/1/4
f 149/3/4 150/3/4 155/3/4
f 155/3/4 150/3/4 156/3/4
f 155/3/4 156/3/4 160/3/4
f 154/3/4 155/3/4 160/3/4
f 156/3/4 157/3/4 160/3/4
f 158/1/4 159/1/4 161/1/4
f 151/5/4 152/5/4 162/5/4
f 152/4/4 153/4/4 163/4/4
f 162/5/4 152/5/4 163/5/4
f 163/4/4 153/4/4 164/4/4
f 164/4/4 153/4/4 167/4/4
f 154/3/4 160/3/4 168/3/4
f 160/1/4 161/1/4 168/1/4
f 161/1/4 159/1/4 169/1/4
f 168/1/4 161/1/4 169/1/4
f 169/1/4 159/1/4 170/1/4
f 170/1/4 159/1/4 171/1/4
f 165/5/4 166/5/4 172/5/4
f 166/4/4 167/4/4 173/4/4
f 172/5/4 166/5/4 173/5/4
f 153/2/4 154/2/4 174/2/4
f 173/4/4 167/4/4 174/4/4
f 167/4/4 153/4/4 174/4/4
f 154/3/4 168/3/4 175/3/4
f 174/2/4 154/2/4 175/2/4
f 175/3/4 168/3/4 176/3/4
f 176/3/4 168/3/4 177/3/4
f 177/3/4 168/3/4 178/3/4
f 176/3/4 177/3/4 179/3/4
f 179/3/4 177/3/4 180/3/4
f 179/1/4 180/1/4 181/1/4
f 181/1/4 180/1/4 182/1/4
f 182/1/4 180/1/4 183/1/4
f 183/1/4 180/1/4 184/1/4
f 189/5/5 186/5/5 185/5/5
f 190/5/5 186/5/5 189/5/5
f 191/5/5 188/5/5 187/5/5
f 192/5/5 188/5/5 191/5/5
f 195/4/5 194/4/5 193/4/5
f 196/4/5 194/4/5 195/4/5
f 203/1/5 198/1/5 197/1/5
f 204/3/5 199/3/5 198/3/5
f 204/1/5 198/1/5 203/1/5
f 205/3/5 199/3/5 204/3/5
f 206/3/5 201/3/5 200/3/5
f 207/1/5 202/1/5 201/1/5
f 207/3/5 201/3/5 206/3/5
f 208/1/5 202/1/5 207/1/5
f 213/1/5 210/1/5 209/1/5
f 214/1/5 210/1/5 213/1/5
f 215/1/5 212/1/5 211/1/5
f 216/1/5 212/1/5 215/1/5
f 219/1/5 218/1/5 217/1/5
f 220/1/5 218/1/5 219/1/5
f 221/1/5 219/1/5 217/1/5
f 222/1/5 219/1/5 221/1/5
f 223/1/5 218/1/5 220/1/5
f 224/1/5 218/1/5 223/1/5
f 225/5/6 226/5/6 229/5/6
f 229/5/6 226/5/6 230/5/6
f 227/5/6 228/5/6 231/5/6
f 231/5/6 228/5/6 232/5/6
f 233/5/6 234/5/6 237/5/6
f 237/5/6 234/5/6 238/5/6
f 235/5/6 236/5/6 239/5/6
f 239/5/6 236/5/6 240/5/6
f 241/1/6 242/1/6 247/1/6
f 242/3/6 243/3/6 248/3/6
f 247/1/6 242/1/6 248/1/6
f 248/3/6 243/3/6 249/3/6
f 244/3/6 245/3/6 250/3/6
f 245/1/6 246/1/6 251/1/6
f 250/3/6 245/3/6 251/3/6
f 251/1/6 246/1/6 252/1/6
f 253/3/6 254/3/6 255/3/6
f 255/3/6 254/3/6 256/3/6
f 253/3/6 255/3/6 257/3/6
f 257/3/6 255/3/6 258/3/6
f 256/3/6 254/3/6 259/3/6
f 259/3/6 254/3/6 260/3/6
f 261/1/6 262/1/6 263/1/6
f 263/1/6 262/1/6 264/1/6
