# MagicaVoxel @ Ephtracy

# group
o 

# material
mtllib KBM_F.mtl
usemtl palette

# normals
vn -1 0 0
vn 1 0 0
vn 0 0 1
vn 0 0 -1
vn 0 -1 0
vn 0 1 0

# texcoords
vt 0.00195313 0.5
vt 0.00976563 0.5
vt 0.0136719 0.5
vt 0.0175781 0.5
vt 0.0214844 0.5
vt 0.0253906 0.5
vt 0.0292969 0.5

# verts
v -0.8 -0.7 0
v -0.8 -0.7 -0.1
v -0.8 0.7 0
v -0.8 0.7 -0.1
v -0.7 -0.8 0
v -0.7 -0.8 -0.1
v -0.7 -0.7 0
v -0.7 -0.7 -0.1
v -0.7 0.7 0
v -0.7 0.7 -0.1
v -0.7 0.8 0
v -0.7 0.8 -0.1
v 0.7 -0.8 0
v 0.7 -0.8 -0.1
v 0.7 -0.7 0
v 0.7 -0.7 -0.1
v 0.7 0.7 0
v 0.7 0.7 -0.1
v 0.7 0.8 0
v 0.7 0.8 -0.1
v 0.8 -0.7 0
v 0.8 -0.7 -0.1
v 0.8 0.7 0
v 0.8 0.7 -0.1
v -0.8 -0.7 0
v -0.8 0.7 0
v -0.7 -0.8 0
v -0.7 -0.7 0
v -0.7 -0.6 0
v -0.7 -0.4 0
v -0.7 0.6 0
v -0.7 0.7 0
v -0.7 0.8 0
v -0.6 -0.7 0
v -0.6 -0.6 0
v -0.6 -0.5 0
v -0.6 -0.4 0
v -0.6 0.6 0
v -0.6 0.7 0
v -0.4 -0.7 0
v -0.4 -0.5 0
v -0.2 -0.7 0
v -0.2 -0.5 0
v -0.2 -0.1 0
v -0.2 0.5 0
v -0.1 -0.1 0
v -0.1 0.2 0
v -0.1 0.3 0
v -0.1 0.4 0
v 0.1 0.2 0
v 0.1 0.3 0
v 0.2 -0.7 0
v 0.2 -0.5 0
v 0.2 0.4 0
v 0.2 0.5 0
v 0.4 -0.7 0
v 0.4 -0.5 0
v 0.6 -0.7 0
v 0.6 -0.6 0
v 0.6 -0.5 0
v 0.6 -0.4 0
v 0.6 0.6 0
v 0.6 0.7 0
v 0.7 -0.8 0
v 0.7 -0.7 0
v 0.7 -0.6 0
v 0.7 -0.4 0
v 0.7 0.6 0
v 0.7 0.7 0
v 0.7 0.8 0
v 0.8 -0.7 0
v 0.8 0.7 0
v -0.8 -0.7 -0.1
v -0.8 0.7 -0.1
v -0.7 -0.8 -0.1
v -0.7 -0.7 -0.1
v -0.7 -0.6 -0.1
v -0.7 -0.4 -0.1
v -0.7 0.6 -0.1
v -0.7 0.7 -0.1
v -0.7 0.8 -0.1
v -0.6 -0.7 -0.1
v -0.6 -0.6 -0.1
v -0.6 -0.5 -0.1
v -0.6 -0.4 -0.1
v -0.6 0.6 -0.1
v -0.6 0.7 -0.1
v -0.4 -0.7 -0.1
v -0.4 -0.5 -0.1
v -0.2 -0.7 -0.1
v -0.2 -0.5 -0.1
v -0.2 -0.1 -0.1
v -0.2 0.5 -0.1
v -0.1 -0.1 -0.1
v -0.1 0.2 -0.1
v -0.1 0.3 -0.1
v -0.1 0.4 -0.1
v 0.1 0.2 -0.1
v 0.1 0.3 -0.1
v 0.2 -0.7 -0.1
v 0.2 -0.5 -0.1
v 0.2 0.4 -0.1
v 0.2 0.5 -0.1
v 0.4 -0.7 -0.1
v 0.4 -0.5 -0.1
v 0.6 -0.7 -0.1
v 0.6 -0.6 -0.1
v 0.6 -0.5 -0.1
v 0.6 -0.4 -0.1
v 0.6 0.6 -0.1
v 0.6 0.7 -0.1
v 0.7 -0.8 -0.1
v 0.7 -0.7 -0.1
v 0.7 -0.6 -0.1
v 0.7 -0.4 -0.1
v 0.7 0.6 -0.1
v 0.7 0.7 -0.1
v 0.7 0.8 -0.1
v 0.8 -0.7 -0.1
v 0.8 0.7 -0.1
v -0.7 -0.8 0
v 0.7 -0.8 0
v -0.7 -0.8 -0.1
v 0.7 -0.8 -0.1
v -0.8 -0.7 0
v -0.7 -0.7 0
v 0.7 -0.7 0
v 0.8 -0.7 0
v -0.8 -0.7 -0.1
v -0.7 -0.7 -0.1
v 0.7 -0.7 -0.1
v 0.8 -0.7 -0.1
v -0.8 0.7 0
v -0.7 0.7 0
v 0.7 0.7 0
v 0.8 0.7 0
v -0.8 0.7 -0.1
v -0.7 0.7 -0.1
v 0.7 0.7 -0.1
v 0.8 0.7 -0.1
v -0.7 0.8 0
v 0.7 0.8 0
v -0.7 0.8 -0.1
v 0.7 0.8 -0.1

# faces
f 3/7/1 2/7/1 1/7/1
f 4/7/1 2/7/1 3/7/1
f 7/7/1 6/7/1 5/7/1
f 8/7/1 6/7/1 7/7/1
f 11/7/1 10/7/1 9/7/1
f 12/7/1 10/7/1 11/7/1
f 13/7/2 14/7/2 15/7/2
f 15/7/2 14/7/2 16/7/2
f 17/7/2 18/7/2 19/7/2
f 19/7/2 18/7/2 20/7/2
f 21/7/2 22/7/2 23/7/2
f 23/7/2 22/7/2 24/7/2
f 28/7/3 26/7/3 25/7/3
f 29/7/3 26/7/3 28/7/3
f 30/7/3 26/7/3 29/7/3
f 31/7/3 26/7/3 30/7/3
f 32/7/3 26/7/3 31/7/3
f 34/7/3 28/7/3 27/7/3
f 34/7/3 29/7/3 28/7/3
f 35/3/3 30/3/3 29/3/3
f 35/7/3 29/7/3 34/7/3
f 36/3/3 30/3/3 35/3/3
f 37/2/3 31/2/3 30/2/3
f 37/3/3 30/3/3 36/3/3
f 38/7/3 33/7/3 32/7/3
f 38/2/3 31/2/3 37/2/3
f 38/7/3 32/7/3 31/7/3
f 39/7/3 33/7/3 38/7/3
f 40/4/3 35/4/3 34/4/3
f 40/7/3 34/7/3 27/7/3
f 40/4/3 36/4/3 35/4/3
f 41/2/3 37/2/3 36/2/3
f 41/4/3 36/4/3 40/4/3
f 41/2/3 39/2/3 38/2/3
f 41/2/3 38/2/3 37/2/3
f 42/7/3 40/7/3 27/7/3
f 42/5/3 41/5/3 40/5/3
f 43/2/3 39/2/3 41/2/3
f 43/5/3 41/5/3 42/5/3
f 44/2/3 39/2/3 43/2/3
f 45/2/3 39/2/3 44/2/3
f 46/2/3 44/2/3 43/2/3
f 46/1/3 45/1/3 44/1/3
f 47/1/3 45/1/3 46/1/3
f 48/1/3 45/1/3 47/1/3
f 49/1/3 45/1/3 48/1/3
f 50/2/3 47/2/3 46/2/3
f 50/1/3 48/1/3 47/1/3
f 51/2/3 49/2/3 48/2/3
f 51/1/3 48/1/3 50/1/3
f 52/7/3 42/7/3 27/7/3
f 52/6/3 43/6/3 42/6/3
f 53/2/3 51/2/3 50/2/3
f 53/6/3 43/6/3 52/6/3
f 53/2/3 46/2/3 43/2/3
f 53/2/3 50/2/3 46/2/3
f 54/2/3 49/2/3 51/2/3
f 54/2/3 51/2/3 53/2/3
f 54/1/3 45/1/3 49/1/3
f 55/2/3 39/2/3 45/2/3
f 55/1/3 45/1/3 54/1/3
f 56/5/3 53/5/3 52/5/3
f 56/7/3 52/7/3 27/7/3
f 57/2/3 55/2/3 54/2/3
f 57/5/3 53/5/3 56/5/3
f 57/2/3 54/2/3 53/2/3
f 58/7/3 56/7/3 27/7/3
f 58/4/3 57/4/3 56/4/3
f 59/4/3 57/4/3 58/4/3
f 60/2/3 55/2/3 57/2/3
f 60/4/3 57/4/3 59/4/3
f 61/2/3 55/2/3 60/2/3
f 62/2/3 39/2/3 55/2/3
f 62/2/3 55/2/3 61/2/3
f 63/7/3 33/7/3 39/7/3
f 63/2/3 39/2/3 62/2/3
f 64/7/3 59/7/3 58/7/3
f 64/7/3 58/7/3 27/7/3
f 65/7/3 59/7/3 64/7/3
f 66/3/3 61/3/3 60/3/3
f 66/7/3 59/7/3 65/7/3
f 66/3/3 60/3/3 59/3/3
f 67/2/3 62/2/3 61/2/3
f 67/3/3 61/3/3 66/3/3
f 68/7/3 63/7/3 62/7/3
f 68/2/3 62/2/3 67/2/3
f 69/7/3 33/7/3 63/7/3
f 69/7/3 63/7/3 68/7/3
f 70/7/3 33/7/3 69/7/3
f 71/7/3 66/7/3 65/7/3
f 71/7/3 69/7/3 68/7/3
f 71/7/3 68/7/3 67/7/3
f 71/7/3 67/7/3 66/7/3
f 72/7/3 69/7/3 71/7/3
f 73/7/4 74/7/4 76/7/4
f 76/7/4 74/7/4 77/7/4
f 77/7/4 74/7/4 78/7/4
f 78/7/4 74/7/4 79/7/4
f 79/7/4 74/7/4 80/7/4
f 75/7/4 76/7/4 82/7/4
f 76/7/4 77/7/4 82/7/4
f 77/3/4 78/3/4 83/3/4
f 82/7/4 77/7/4 83/7/4
f 83/3/4 78/3/4 84/3/4
f 78/2/4 79/2/4 85/2/4
f 84/3/4 78/3/4 85/3/4
f 80/7/4 81/7/4 86/7/4
f 85/2/4 79/2/4 86/2/4
f 79/7/4 80/7/4 86/7/4
f 86/7/4 81/7/4 87/7/4
f 82/4/4 83/4/4 88/4/4
f 75/7/4 82/7/4 88/7/4
f 83/4/4 84/4/4 88/4/4
f 84/2/4 85/2/4 89/2/4
f 88/4/4 84/4/4 89/4/4
f 86/2/4 87/2/4 89/2/4
f 85/2/4 86/2/4 89/2/4
f 75/7/4 88/7/4 90/7/4
f 88/5/4 89/5/4 90/5/4
f 89/2/4 87/2/4 91/2/4
f 90/5/4 89/5/4 91/5/4
f 91/2/4 87/2/4 92/2/4
f 92/2/4 87/2/4 93/2/4
f 91/2/4 92/2/4 94/2/4
f 92/1/4 93/1/4 94/1/4
f 94/1/4 93/1/4 95/1/4
f 95/1/4 93/1/4 96/1/4
f 96/1/4 93/1/4 97/1/4
f 94/2/4 95/2/4 98/2/4
f 95/1/4 96/1/4 98/1/4
f 96/2/4 97/2/4 99/2/4
f 98/1/4 96/1/4 99/1/4
f 75/7/4 90/7/4 100/7/4
f 90/6/4 91/6/4 100/6/4
f 98/2/4 99/2/4 101/2/4
f 100/6/4 91/6/4 101/6/4
f 91/2/4 94/2/4 101/2/4
f 94/2/4 98/2/4 101/2/4
f 99/2/4 97/2/4 102/2/4
f 101/2/4 99/2/4 102/2/4
f 97/1/4 93/1/4 102/1/4
f 93/2/4 87/2/4 103/2/4
f 102/1/4 93/1/4 103/1/4
f 100/5/4 101/5/4 104/5/4
f 75/7/4 100/7/4 104/7/4
f 102/2/4 103/2/4 105/2/4
f 104/5/4 101/5/4 105/5/4
f 101/2/4 102/2/4 105/2/4
f 75/7/4 104/7/4 106/7/4
f 104/4/4 105/4/4 106/4/4
f 106/4/4 105/4/4 107/4/4
f 105/2/4 103/2/4 108/2/4
f 107/4/4 105/4/4 108/4/4
f 108/2/4 103/2/4 109/2/4
f 103/2/4 87/2/4 110/2/4
f 109/2/4 103/2/4 110/2/4
f 87/7/4 81/7/4 111/7/4
f 110/2/4 87/2/4 111/2/4
f 106/7/4 107/7/4 112/7/4
f 75/7/4 106/7/4 112/7/4
f 112/7/4 107/7/4 113/7/4
f 108/3/4 109/3/4 114/3/4
f 113/7/4 107/7/4 114/7/4
f 107/3/4 108/3/4 114/3/4
f 109/2/4 110/2/4 115/2/4
f 114/3/4 109/3/4 115/3/4
f 110/7/4 111/7/4 116/7/4
f 115/2/4 110/2/4 116/2/4
f 111/7/4 81/7/4 117/7/4
f 116/7/4 111/7/4 117/7/4
f 117/7/4 81/7/4 118/7/4
f 113/7/4 114/7/4 119/7/4
f 116/7/4 117/7/4 119/7/4
f 115/7/4 116/7/4 119/7/4
f 114/7/4 115/7/4 119/7/4
f 119/7/4 117/7/4 120/7/4
f 123/7/5 122/7/5 121/7/5
f 124/7/5 122/7/5 123/7/5
f 129/7/5 126/7/5 125/7/5
f 130/7/5 126/7/5 129/7/5
f 131/7/5 128/7/5 127/7/5
f 132/7/5 128/7/5 131/7/5
f 133/7/6 134/7/6 137/7/6
f 137/7/6 134/7/6 138/7/6
f 135/7/6 136/7/6 139/7/6
f 139/7/6 136/7/6 140/7/6
f 141/7/6 142/7/6 143/7/6
f 143/7/6 142/7/6 144/7/6
