# MagicaVoxel @ Ephtracy

# group
o 

# material
mtllib DollyCart.mtl
usemtl palette

# normals
vn -1 0 0
vn 1 0 0
vn 0 0 1
vn 0 0 -1
vn 0 -1 0
vn 0 1 0

# texcoords
vt 0.841797 0.5
vt 0.970703 0.5
vt 0.994141 0.5

# verts
v -0.5 0.4 1
v -0.5 0.4 -1
v -0.5 0.5 1
v -0.5 0.5 -1
v -0.4 0 0.7
v -0.4 0 0.5
v -0.4 0 -0.5
v -0.4 0 -0.7
v -0.4 0.1 0.8
v -0.4 0.1 0.7
v -0.4 0.1 0.5
v -0.4 0.1 0.4
v -0.4 0.1 -0.4
v -0.4 0.1 -0.5
v -0.4 0.1 -0.7
v -0.4 0.1 -0.8
v -0.4 0.3 0.8
v -0.4 0.3 0.7
v -0.4 0.3 0.5
v -0.4 0.3 0.4
v -0.4 0.3 -0.4
v -0.4 0.3 -0.5
v -0.4 0.3 -0.7
v -0.4 0.3 -0.8
v -0.4 0.4 0.7
v -0.4 0.4 0.5
v -0.4 0.4 -0.5
v -0.4 0.4 -0.7
v -0.4 0.5 0.9
v -0.4 0.5 0.8
v -0.4 1.4 1
v -0.4 1.4 0.9
v -0.4 1.4 0.8
v -0.4 1.5 1
v -0.4 1.5 0.9
v 0.3 0 0.7
v 0.3 0 0.5
v 0.3 0 -0.5
v 0.3 0 -0.7
v 0.3 0.1 0.8
v 0.3 0.1 0.7
v 0.3 0.1 0.5
v 0.3 0.1 0.4
v 0.3 0.1 -0.4
v 0.3 0.1 -0.5
v 0.3 0.1 -0.7
v 0.3 0.1 -0.8
v 0.3 0.3 0.8
v 0.3 0.3 0.7
v 0.3 0.3 0.5
v 0.3 0.3 0.4
v 0.3 0.3 -0.4
v 0.3 0.3 -0.5
v 0.3 0.3 -0.7
v 0.3 0.3 -0.8
v 0.3 0.4 0.7
v 0.3 0.4 0.5
v 0.3 0.4 -0.5
v 0.3 0.4 -0.7
v 0.3 0.5 0.9
v 0.3 0.5 0.8
v 0.3 0.7 0.9
v 0.3 0.7 0.8
v 0.3 0.8 0.9
v 0.3 0.8 0.8
v 0.3 1 0.9
v 0.3 1 0.8
v 0.3 1.1 0.9
v 0.3 1.1 0.8
v 0.3 1.3 0.9
v 0.3 1.3 0.8
v -0.3 0 0.7
v -0.3 0 0.5
v -0.3 0 -0.5
v -0.3 0 -0.7
v -0.3 0.1 0.8
v -0.3 0.1 0.7
v -0.3 0.1 0.5
v -0.3 0.1 0.4
v -0.3 0.1 -0.4
v -0.3 0.1 -0.5
v -0.3 0.1 -0.7
v -0.3 0.1 -0.8
v -0.3 0.3 0.8
v -0.3 0.3 0.7
v -0.3 0.3 0.5
v -0.3 0.3 0.4
v -0.3 0.3 -0.4
v -0.3 0.3 -0.5
v -0.3 0.3 -0.7
v -0.3 0.3 -0.8
v -0.3 0.4 0.7
v -0.3 0.4 0.5
v -0.3 0.4 -0.5
v -0.3 0.4 -0.7
v -0.3 0.5 0.9
v -0.3 0.5 0.8
v -0.3 0.7 0.9
v -0.3 0.7 0.8
v -0.3 0.8 0.9
v -0.3 0.8 0.8
v -0.3 1 0.9
v -0.3 1 0.8
v -0.3 1.1 0.9
v -0.3 1.1 0.8
v -0.3 1.3 0.9
v -0.3 1.3 0.8
v 0.4 0 0.7
v 0.4 0 0.5
v 0.4 0 -0.5
v 0.4 0 -0.7
v 0.4 0.1 0.8
v 0.4 0.1 0.7
v 0.4 0.1 0.5
v 0.4 0.1 0.4
v 0.4 0.1 -0.4
v 0.4 0.1 -0.5
v 0.4 0.1 -0.7
v 0.4 0.1 -0.8
v 0.4 0.3 0.8
v 0.4 0.3 0.7
v 0.4 0.3 0.5
v 0.4 0.3 0.4
v 0.4 0.3 -0.4
v 0.4 0.3 -0.5
v 0.4 0.3 -0.7
v 0.4 0.3 -0.8
v 0.4 0.4 0.7
v 0.4 0.4 0.5
v 0.4 0.4 -0.5
v 0.4 0.4 -0.7
v 0.4 0.5 0.9
v 0.4 0.5 0.8
v 0.4 1.4 1
v 0.4 1.4 0.9
v 0.4 1.4 0.8
v 0.4 1.5 1
v 0.4 1.5 0.9
v 0.5 0.4 1
v 0.5 0.4 -1
v 0.5 0.5 1
v 0.5 0.5 -1
v -0.5 0.4 1
v -0.5 0.5 1
v -0.4 1.4 1
v -0.4 1.5 1
v 0.4 1.4 1
v 0.4 1.5 1
v 0.5 0.4 1
v 0.5 0.5 1
v -0.4 0.5 0.9
v -0.4 1.4 0.9
v -0.3 0.5 0.9
v -0.3 0.7 0.9
v -0.3 0.8 0.9
v -0.3 1 0.9
v -0.3 1.1 0.9
v -0.3 1.3 0.9
v 0.3 0.5 0.9
v 0.3 0.7 0.9
v 0.3 0.8 0.9
v 0.3 1 0.9
v 0.3 1.1 0.9
v 0.3 1.3 0.9
v 0.4 0.5 0.9
v 0.4 1.4 0.9
v -0.4 0.1 0.8
v -0.4 0.3 0.8
v -0.3 0.1 0.8
v -0.3 0.3 0.8
v 0.3 0.1 0.8
v 0.3 0.3 0.8
v 0.4 0.1 0.8
v 0.4 0.3 0.8
v -0.4 0 0.7
v -0.4 0.1 0.7
v -0.4 0.3 0.7
v -0.4 0.4 0.7
v -0.3 0 0.7
v -0.3 0.1 0.7
v -0.3 0.3 0.7
v -0.3 0.4 0.7
v 0.3 0 0.7
v 0.3 0.1 0.7
v 0.3 0.3 0.7
v 0.3 0.4 0.7
v 0.4 0 0.7
v 0.4 0.1 0.7
v 0.4 0.3 0.7
v 0.4 0.4 0.7
v -0.4 0.1 -0.4
v -0.4 0.3 -0.4
v -0.3 0.1 -0.4
v -0.3 0.3 -0.4
v 0.3 0.1 -0.4
v 0.3 0.3 -0.4
v 0.4 0.1 -0.4
v 0.4 0.3 -0.4
v -0.4 0 -0.5
v -0.4 0.1 -0.5
v -0.4 0.3 -0.5
v -0.4 0.4 -0.5
v -0.3 0 -0.5
v -0.3 0.1 -0.5
v -0.3 0.3 -0.5
v -0.3 0.4 -0.5
v 0.3 0 -0.5
v 0.3 0.1 -0.5
v 0.3 0.3 -0.5
v 0.3 0.4 -0.5
v 0.4 0 -0.5
v 0.4 0.1 -0.5
v 0.4 0.3 -0.5
v 0.4 0.4 -0.5
v -0.4 1.4 0.9
v -0.4 1.5 0.9
v 0.4 1.4 0.9
v 0.4 1.5 0.9
v -0.4 0.5 0.8
v -0.4 1.4 0.8
v -0.3 0.5 0.8
v -0.3 0.7 0.8
v -0.3 0.8 0.8
v -0.3 1 0.8
v -0.3 1.1 0.8
v -0.3 1.3 0.8
v 0.3 0.5 0.8
v 0.3 0.7 0.8
v 0.3 0.8 0.8
v 0.3 1 0.8
v 0.3 1.1 0.8
v 0.3 1.3 0.8
v 0.4 0.5 0.8
v 0.4 1.4 0.8
v -0.4 0 0.5
v -0.4 0.1 0.5
v -0.4 0.3 0.5
v -0.4 0.4 0.5
v -0.3 0 0.5
v -0.3 0.1 0.5
v -0.3 0.3 0.5
v -0.3 0.4 0.5
v 0.3 0 0.5
v 0.3 0.1 0.5
v 0.3 0.3 0.5
v 0.3 0.4 0.5
v 0.4 0 0.5
v 0.4 0.1 0.5
v 0.4 0.3 0.5
v 0.4 0.4 0.5
v -0.4 0.1 0.4
v -0.4 0.3 0.4
v -0.3 0.1 0.4
v -0.3 0.3 0.4
v 0.3 0.1 0.4
v 0.3 0.3 0.4
v 0.4 0.1 0.4
v 0.4 0.3 0.4
v -0.4 0 -0.7
v -0.4 0.1 -0.7
v -0.4 0.3 -0.7
v -0.4 0.4 -0.7
v -0.3 0 -0.7
v -0.3 0.1 -0.7
v -0.3 0.3 -0.7
v -0.3 0.4 -0.7
v 0.3 0 -0.7
v 0.3 0.1 -0.7
v 0.3 0.3 -0.7
v 0.3 0.4 -0.7
v 0.4 0 -0.7
v 0.4 0.1 -0.7
v 0.4 0.3 -0.7
v 0.4 0.4 -0.7
v -0.4 0.1 -0.8
v -0.4 0.3 -0.8
v -0.3 0.1 -0.8
v -0.3 0.3 -0.8
v 0.3 0.1 -0.8
v 0.3 0.3 -0.8
v 0.4 0.1 -0.8
v 0.4 0.3 -0.8
v -0.5 0.4 -1
v -0.5 0.5 -1
v 0.5 0.4 -1
v 0.5 0.5 -1
v -0.4 0 0.7
v -0.3 0 0.7
v 0.3 0 0.7
v 0.4 0 0.7
v -0.4 0 0.5
v -0.3 0 0.5
v 0.3 0 0.5
v 0.4 0 0.5
v -0.4 0 -0.5
v -0.3 0 -0.5
v 0.3 0 -0.5
v 0.4 0 -0.5
v -0.4 0 -0.7
v -0.3 0 -0.7
v 0.3 0 -0.7
v 0.4 0 -0.7
v -0.4 0.1 0.8
v -0.3 0.1 0.8
v 0.3 0.1 0.8
v 0.4 0.1 0.8
v -0.4 0.1 0.7
v -0.3 0.1 0.7
v 0.3 0.1 0.7
v 0.4 0.1 0.7
v -0.4 0.1 0.5
v -0.3 0.1 0.5
v 0.3 0.1 0.5
v 0.4 0.1 0.5
v -0.4 0.1 0.4
v -0.3 0.1 0.4
v 0.3 0.1 0.4
v 0.4 0.1 0.4
v -0.4 0.1 -0.4
v -0.3 0.1 -0.4
v 0.3 0.1 -0.4
v 0.4 0.1 -0.4
v -0.4 0.1 -0.5
v -0.3 0.1 -0.5
v 0.3 0.1 -0.5
v 0.4 0.1 -0.5
v -0.4 0.1 -0.7
v -0.3 0.1 -0.7
v 0.3 0.1 -0.7
v 0.4 0.1 -0.7
v -0.4 0.1 -0.8
v -0.3 0.1 -0.8
v 0.3 0.1 -0.8
v 0.4 0.1 -0.8
v -0.5 0.4 1
v 0.5 0.4 1
v -0.4 0.4 0.7
v -0.3 0.4 0.7
v 0.3 0.4 0.7
v 0.4 0.4 0.7
v -0.4 0.4 0.5
v -0.3 0.4 0.5
v 0.3 0.4 0.5
v 0.4 0.4 0.5
v -0.4 0.4 -0.5
v -0.3 0.4 -0.5
v 0.3 0.4 -0.5
v 0.4 0.4 -0.5
v -0.4 0.4 -0.7
v -0.3 0.4 -0.7
v 0.3 0.4 -0.7
v 0.4 0.4 -0.7
v -0.5 0.4 -1
v 0.5 0.4 -1
v -0.3 0.7 0.9
v 0.3 0.7 0.9
v -0.3 0.7 0.8
v 0.3 0.7 0.8
v -0.3 1 0.9
v 0.3 1 0.9
v -0.3 1 0.8
v 0.3 1 0.8
v -0.3 1.3 0.9
v 0.3 1.3 0.9
v -0.3 1.3 0.8
v 0.3 1.3 0.8
v -0.4 1.4 1
v 0.4 1.4 1
v -0.4 1.4 0.9
v 0.4 1.4 0.9
v -0.4 0.3 0.8
v -0.3 0.3 0.8
v 0.3 0.3 0.8
v 0.4 0.3 0.8
v -0.4 0.3 0.7
v -0.3 0.3 0.7
v 0.3 0.3 0.7
v 0.4 0.3 0.7
v -0.4 0.3 0.5
v -0.3 0.3 0.5
v 0.3 0.3 0.5
v 0.4 0.3 0.5
v -0.4 0.3 0.4
v -0.3 0.3 0.4
v 0.3 0.3 0.4
v 0.4 0.3 0.4
v -0.4 0.3 -0.4
v -0.3 0.3 -0.4
v 0.3 0.3 -0.4
v 0.4 0.3 -0.4
v -0.4 0.3 -0.5
v -0.3 0.3 -0.5
v 0.3 0.3 -0.5
v 0.4 0.3 -0.5
v -0.4 0.3 -0.7
v -0.3 0.3 -0.7
v 0.3 0.3 -0.7
v 0.4 0.3 -0.7
v -0.4 0.3 -0.8
v -0.3 0.3 -0.8
v 0.3 0.3 -0.8
v 0.4 0.3 -0.8
v -0.5 0.5 1
v 0.5 0.5 1
v -0.4 0.5 0.9
v -0.3 0.5 0.9
v 0.3 0.5 0.9
v 0.4 0.5 0.9
v -0.4 0.5 0.8
v -0.3 0.5 0.8
v 0.3 0.5 0.8
v 0.4 0.5 0.8
v -0.5 0.5 -1
v 0.5 0.5 -1
v -0.3 0.8 0.9
v 0.3 0.8 0.9
v -0.3 0.8 0.8
v 0.3 0.8 0.8
v -0.3 1.1 0.9
v 0.3 1.1 0.9
v -0.3 1.1 0.8
v 0.3 1.1 0.8
v -0.4 1.4 0.9
v 0.4 1.4 0.9
v -0.4 1.4 0.8
v 0.4 1.4 0.8
v -0.4 1.5 1
v 0.4 1.5 1
v -0.4 1.5 0.9
v 0.4 1.5 0.9

# faces
f 3/1/1 2/1/1 1/1/1
f 4/1/1 2/1/1 3/1/1
f 10/3/1 6/3/1 5/3/1
f 11/3/1 6/3/1 10/3/1
f 14/3/1 8/3/1 7/3/1
f 15/3/1 8/3/1 14/3/1
f 17/3/1 10/3/1 9/3/1
f 18/2/1 11/2/1 10/2/1
f 18/3/1 10/3/1 17/3/1
f 19/3/1 12/3/1 11/3/1
f 19/2/1 11/2/1 18/2/1
f 20/3/1 12/3/1 19/3/1
f 21/3/1 14/3/1 13/3/1
f 22/2/1 15/2/1 14/2/1
f 22/3/1 14/3/1 21/3/1
f 23/3/1 16/3/1 15/3/1
f 23/2/1 15/2/1 22/2/1
f 24/3/1 16/3/1 23/3/1
f 25/3/1 19/3/1 18/3/1
f 26/3/1 19/3/1 25/3/1
f 27/3/1 23/3/1 22/3/1
f 28/3/1 23/3/1 27/3/1
f 32/1/1 30/1/1 29/1/1
f 33/1/1 30/1/1 32/1/1
f 34/1/1 32/1/1 31/1/1
f 35/1/1 32/1/1 34/1/1
f 41/3/1 37/3/1 36/3/1
f 42/3/1 37/3/1 41/3/1
f 45/3/1 39/3/1 38/3/1
f 46/3/1 39/3/1 45/3/1
f 48/3/1 41/3/1 40/3/1
f 49/2/1 42/2/1 41/2/1
f 49/3/1 41/3/1 48/3/1
f 50/3/1 43/3/1 42/3/1
f 50/2/1 42/2/1 49/2/1
f 51/3/1 43/3/1 50/3/1
f 52/3/1 45/3/1 44/3/1
f 53/2/1 46/2/1 45/2/1
f 53/3/1 45/3/1 52/3/1
f 54/3/1 47/3/1 46/3/1
f 54/2/1 46/2/1 53/2/1
f 55/3/1 47/3/1 54/3/1
f 56/3/1 50/3/1 49/3/1
f 57/3/1 50/3/1 56/3/1
f 58/3/1 54/3/1 53/3/1
f 59/3/1 54/3/1 58/3/1
f 62/1/1 61/1/1 60/1/1
f 63/1/1 61/1/1 62/1/1
f 66/1/1 65/1/1 64/1/1
f 67/1/1 65/1/1 66/1/1
f 70/1/1 69/1/1 68/1/1
f 71/1/1 69/1/1 70/1/1
f 72/3/2 73/3/2 77/3/2
f 77/3/2 73/3/2 78/3/2
f 74/3/2 75/3/2 81/3/2
f 81/3/2 75/3/2 82/3/2
f 76/3/2 77/3/2 84/3/2
f 77/2/2 78/2/2 85/2/2
f 84/3/2 77/3/2 85/3/2
f 78/3/2 79/3/2 86/3/2
f 85/2/2 78/2/2 86/2/2
f 86/3/2 79/3/2 87/3/2
f 80/3/2 81/3/2 88/3/2
f 81/2/2 82/2/2 89/2/2
f 88/3/2 81/3/2 89/3/2
f 82/3/2 83/3/2 90/3/2
f 89/2/2 82/2/2 90/2/2
f 90/3/2 83/3/2 91/3/2
f 85/3/2 86/3/2 92/3/2
f 92/3/2 86/3/2 93/3/2
f 89/3/2 90/3/2 94/3/2
f 94/3/2 90/3/2 95/3/2
f 96/1/2 97/1/2 98/1/2
f 98/1/2 97/1/2 99/1/2
f 100/1/2 101/1/2 102/1/2
f 102/1/2 101/1/2 103/1/2
f 104/1/2 105/1/2 106/1/2
f 106/1/2 105/1/2 107/1/2
f 108/3/2 109/3/2 113/3/2
f 113/3/2 109/3/2 114/3/2
f 110/3/2 111/3/2 117/3/2
f 117/3/2 111/3/2 118/3/2
f 112/3/2 113/3/2 120/3/2
f 113/2/2 114/2/2 121/2/2
f 120/3/2 113/3/2 121/3/2
f 114/3/2 115/3/2 122/3/2
f 121/2/2 114/2/2 122/2/2
f 122/3/2 115/3/2 123/3/2
f 116/3/2 117/3/2 124/3/2
f 117/2/2 118/2/2 125/2/2
f 124/3/2 117/3/2 125/3/2
f 118/3/2 119/3/2 126/3/2
f 125/2/2 118/2/2 126/2/2
f 126/3/2 119/3/2 127/3/2
f 121/3/2 122/3/2 128/3/2
f 128/3/2 122/3/2 129/3/2
f 125/3/2 126/3/2 130/3/2
f 130/3/2 126/3/2 131/3/2
f 132/1/2 133/1/2 135/1/2
f 135/1/2 133/1/2 136/1/2
f 134/1/2 135/1/2 137/1/2
f 137/1/2 135/1/2 138/1/2
f 139/1/2 140/1/2 141/1/2
f 141/1/2 140/1/2 142/1/2
f 147/1/3 146/1/3 145/1/3
f 148/1/3 146/1/3 147/1/3
f 149/1/3 144/1/3 143/1/3
f 150/1/3 144/1/3 149/1/3
f 153/1/3 152/1/3 151/1/3
f 154/1/3 152/1/3 153/1/3
f 155/1/3 152/1/3 154/1/3
f 156/1/3 152/1/3 155/1/3
f 157/1/3 152/1/3 156/1/3
f 158/1/3 152/1/3 157/1/3
f 160/1/3 155/1/3 154/1/3
f 161/1/3 155/1/3 160/1/3
f 162/1/3 157/1/3 156/1/3
f 163/1/3 157/1/3 162/1/3
f 164/1/3 152/1/3 158/1/3
f 165/1/3 163/1/3 162/1/3
f 165/1/3 164/1/3 163/1/3
f 165/1/3 161/1/3 160/1/3
f 165/1/3 160/1/3 159/1/3
f 165/1/3 162/1/3 161/1/3
f 166/1/3 152/1/3 164/1/3
f 166/1/3 164/1/3 165/1/3
f 169/3/3 168/3/3 167/3/3
f 170/3/3 168/3/3 169/3/3
f 173/3/3 172/3/3 171/3/3
f 174/3/3 172/3/3 173/3/3
f 179/3/3 176/3/3 175/3/3
f 180/3/3 176/3/3 179/3/3
f 181/3/3 178/3/3 177/3/3
f 182/3/3 178/3/3 181/3/3
f 187/3/3 184/3/3 183/3/3
f 188/3/3 184/3/3 187/3/3
f 189/3/3 186/3/3 185/3/3
f 190/3/3 186/3/3 189/3/3
f 193/3/3 192/3/3 191/3/3
f 194/3/3 192/3/3 193/3/3
f 197/3/3 196/3/3 195/3/3
f 198/3/3 196/3/3 197/3/3
f 203/3/3 200/3/3 199/3/3
f 204/3/3 200/3/3 203/3/3
f 205/3/3 202/3/3 201/3/3
f 206/3/3 202/3/3 205/3/3
f 211/3/3 208/3/3 207/3/3
f 212/3/3 208/3/3 211/3/3
f 213/3/3 210/3/3 209/3/3
f 214/3/3 210/3/3 213/3/3
f 215/1/4 216/1/4 217/1/4
f 217/1/4 216/1/4 218/1/4
f 219/1/4 220/1/4 221/1/4
f 221/1/4 220/1/4 222/1/4
f 222/1/4 220/1/4 223/1/4
f 223/1/4 220/1/4 224/1/4
f 224/1/4 220/1/4 225/1/4
f 225/1/4 220/1/4 226/1/4
f 222/1/4 223/1/4 228/1/4
f 228/1/4 223/1/4 229/1/4
f 224/1/4 225/1/4 230/1/4
f 230/1/4 225/1/4 231/1/4
f 226/1/4 220/1/4 232/1/4
f 230/1/4 231/1/4 233/1/4
f 231/1/4 232/1/4 233/1/4
f 228/1/4 229/1/4 233/1/4
f 227/1/4 228/1/4 233/1/4
f 229/1/4 230/1/4 233/1/4
f 232/1/4 220/1/4 234/1/4
f 233/1/4 232/1/4 234/1/4
f 235/3/4 236/3/4 239/3/4
f 239/3/4 236/3/4 240/3/4
f 237/3/4 238/3/4 241/3/4
f 241/3/4 238/3/4 242/3/4
f 243/3/4 244/3/4 247/3/4
f 247/3/4 244/3/4 248/3/4
f 245/3/4 246/3/4 249/3/4
f 249/3/4 246/3/4 250/3/4
f 251/3/4 252/3/4 253/3/4
f 253/3/4 252/3/4 254/3/4
f 255/3/4 256/3/4 257/3/4
f 257/3/4 256/3/4 258/3/4
f 259/3/4 260/3/4 263/3/4
f 263/3/4 260/3/4 264/3/4
f 261/3/4 262/3/4 265/3/4
f 265/3/4 262/3/4 266/3/4
f 267/3/4 268/3/4 271/3/4
f 271/3/4 268/3/4 272/3/4
f 269/3/4 270/3/4 273/3/4
f 273/3/4 270/3/4 274/3/4
f 275/3/4 276/3/4 277/3/4
f 277/3/4 276/3/4 278/3/4
f 279/3/4 280/3/4 281/3/4
f 281/3/4 280/3/4 282/3/4
f 283/1/4 284/1/4 285/1/4
f 285/1/4 284/1/4 286/1/4
f 291/3/5 288/3/5 287/3/5
f 292/3/5 288/3/5 291/3/5
f 293/3/5 290/3/5 289/3/5
f 294/3/5 290/3/5 293/3/5
f 299/3/5 296/3/5 295/3/5
f 300/3/5 296/3/5 299/3/5
f 301/3/5 298/3/5 297/3/5
f 302/3/5 298/3/5 301/3/5
f 307/3/5 304/3/5 303/3/5
f 308/3/5 304/3/5 307/3/5
f 309/3/5 306/3/5 305/3/5
f 310/3/5 306/3/5 309/3/5
f 315/3/5 312/3/5 311/3/5
f 316/3/5 312/3/5 315/3/5
f 317/3/5 314/3/5 313/3/5
f 318/3/5 314/3/5 317/3/5
f 323/3/5 320/3/5 319/3/5
f 324/3/5 320/3/5 323/3/5
f 325/3/5 322/3/5 321/3/5
f 326/3/5 322/3/5 325/3/5
f 331/3/5 328/3/5 327/3/5
f 332/3/5 328/3/5 331/3/5
f 333/3/5 330/3/5 329/3/5
f 334/3/5 330/3/5 333/3/5
f 337/1/5 336/1/5 335/1/5
f 338/1/5 336/1/5 337/1/5
f 339/1/5 336/1/5 338/1/5
f 340/1/5 336/1/5 339/1/5
f 341/1/5 337/1/5 335/1/5
f 342/1/5 339/1/5 338/1/5
f 343/1/5 339/1/5 342/1/5
f 344/1/5 336/1/5 340/1/5
f 345/1/5 343/1/5 342/1/5
f 345/1/5 344/1/5 343/1/5
f 345/1/5 341/1/5 335/1/5
f 345/1/5 342/1/5 341/1/5
f 346/1/5 344/1/5 345/1/5
f 347/1/5 344/1/5 346/1/5
f 348/1/5 336/1/5 344/1/5
f 348/1/5 344/1/5 347/1/5
f 349/1/5 345/1/5 335/1/5
f 350/1/5 347/1/5 346/1/5
f 351/1/5 347/1/5 350/1/5
f 352/1/5 336/1/5 348/1/5
f 353/1/5 349/1/5 335/1/5
f 353/1/5 352/1/5 351/1/5
f 353/1/5 351/1/5 350/1/5
f 353/1/5 350/1/5 349/1/5
f 354/1/5 336/1/5 352/1/5
f 354/1/5 352/1/5 353/1/5
f 357/1/5 356/1/5 355/1/5
f 358/1/5 356/1/5 357/1/5
f 361/1/5 360/1/5 359/1/5
f 362/1/5 360/1/5 361/1/5
f 365/1/5 364/1/5 363/1/5
f 366/1/5 364/1/5 365/1/5
f 369/1/5 368/1/5 367/1/5
f 370/1/5 368/1/5 369/1/5
f 371/3/6 372/3/6 375/3/6
f 375/3/6 372/3/6 376/3/6
f 373/3/6 374/3/6 377/3/6
f 377/3/6 374/3/6 378/3/6
f 379/3/6 380/3/6 383/3/6
f 383/3/6 380/3/6 384/3/6
f 381/3/6 382/3/6 385/3/6
f 385/3/6 382/3/6 386/3/6
f 387/3/6 388/3/6 391/3/6
f 391/3/6 388/3/6 392/3/6
f 389/3/6 390/3/6 393/3/6
f 393/3/6 390/3/6 394/3/6
f 395/3/6 396/3/6 399/3/6
f 399/3/6 396/3/6 400/3/6
f 397/3/6 398/3/6 401/3/6
f 401/3/6 398/3/6 402/3/6
f 403/1/6 404/1/6 405/1/6
f 405/1/6 404/1/6 406/1/6
f 406/1/6 404/1/6 407/1/6
f 407/1/6 404/1/6 408/1/6
f 403/1/6 405/1/6 409/1/6
f 406/1/6 407/1/6 410/1/6
f 410/1/6 407/1/6 411/1/6
f 408/1/6 404/1/6 412/1/6
f 410/1/6 411/1/6 413/1/6
f 411/1/6 412/1/6 413/1/6
f 403/1/6 409/1/6 413/1/6
f 409/1/6 410/1/6 413/1/6
f 412/1/6 404/1/6 414/1/6
f 413/1/6 412/1/6 414/1/6
f 415/1/6 416/1/6 417/1/6
f 417/1/6 416/1/6 418/1/6
f 419/1/6 420/1/6 421/1/6
f 421/1/6 420/1/6 422/1/6
f 423/1/6 424/1/6 425/1/6
f 425/1/6 424/1/6 426/1/6
f 427/1/6 428/1/6 429/1/6
f 429/1/6 428/1/6 430/1/6
