# MagicaVoxel @ Ephtracy

# group
o 

# material
mtllib ds4_circle.mtl
usemtl palette

# normals
vn -1 0 0
vn 1 0 0
vn 0 0 1
vn 0 0 -1
vn 0 -1 0
vn 0 1 0

# texcoords
vt 0.0136719 0.5
vt 0.0175781 0.5
vt 0.0214844 0.5
vt 0.0253906 0.5
vt 0.0292969 0.5
vt 0.306641 0.5
vt 0.841797 0.5

# verts
v -0.8 -0.3 0
v -0.8 -0.3 -0.1
v -0.8 0.3 0
v -0.8 0.3 -0.1
v -0.7 -0.5 0
v -0.7 -0.5 -0.1
v -0.7 -0.3 0
v -0.7 -0.3 -0.1
v -0.7 0.3 0
v -0.7 0.3 -0.1
v -0.7 0.5 0
v -0.7 0.5 -0.1
v -0.6 -0.6 0
v -0.6 -0.6 -0.1
v -0.6 -0.5 0
v -0.6 -0.5 -0.1
v -0.6 0.5 0
v -0.6 0.5 -0.1
v -0.6 0.6 0
v -0.6 0.6 -0.1
v -0.5 -0.7 0
v -0.5 -0.7 -0.1
v -0.5 -0.6 0
v -0.5 -0.6 -0.1
v -0.5 0.6 0
v -0.5 0.6 -0.1
v -0.5 0.7 0
v -0.5 0.7 -0.1
v -0.3 -0.8 0
v -0.3 -0.8 -0.1
v -0.3 -0.7 0
v -0.3 -0.7 -0.1
v -0.3 0.7 0
v -0.3 0.7 -0.1
v -0.3 0.8 0
v -0.3 0.8 -0.1
v 0.3 -0.8 0
v 0.3 -0.8 -0.1
v 0.3 -0.7 0
v 0.3 -0.7 -0.1
v 0.3 0.7 0
v 0.3 0.7 -0.1
v 0.3 0.8 0
v 0.3 0.8 -0.1
v 0.5 -0.7 0
v 0.5 -0.7 -0.1
v 0.5 -0.6 0
v 0.5 -0.6 -0.1
v 0.5 0.6 0
v 0.5 0.6 -0.1
v 0.5 0.7 0
v 0.5 0.7 -0.1
v 0.6 -0.6 0
v 0.6 -0.6 -0.1
v 0.6 -0.5 0
v 0.6 -0.5 -0.1
v 0.6 0.5 0
v 0.6 0.5 -0.1
v 0.6 0.6 0
v 0.6 0.6 -0.1
v 0.7 -0.5 0
v 0.7 -0.5 -0.1
v 0.7 -0.3 0
v 0.7 -0.3 -0.1
v 0.7 0.3 0
v 0.7 0.3 -0.1
v 0.7 0.5 0
v 0.7 0.5 -0.1
v 0.8 -0.3 0
v 0.8 -0.3 -0.1
v 0.8 0.3 0
v 0.8 0.3 -0.1
v -0.8 -0.3 0
v -0.8 0.3 0
v -0.7 -0.5 0
v -0.7 -0.3 0
v -0.7 -0.2 0
v -0.7 0.3 0
v -0.7 0.5 0
v -0.6 -0.6 0
v -0.6 -0.5 0
v -0.6 -0.3 0
v -0.6 -0.2 0
v -0.6 0.3 0
v -0.6 0.5 0
v -0.6 0.6 0
v -0.5 -0.7 0
v -0.5 -0.6 0
v -0.5 -0.5 0
v -0.5 -0.4 0
v -0.5 -0.3 0
v -0.5 0.5 0
v -0.5 0.6 0
v -0.5 0.7 0
v -0.4 -0.5 0
v -0.4 -0.4 0
v -0.4 -0.1 0
v -0.4 0.3 0
v -0.3 -0.8 0
v -0.3 -0.7 0
v -0.3 -0.6 0
v -0.3 -0.5 0
v -0.3 -0.2 0
v -0.3 -0.1 0
v -0.3 0.3 0
v -0.3 0.4 0
v -0.3 0.6 0
v -0.3 0.7 0
v -0.3 0.8 0
v -0.2 -0.7 0
v -0.2 -0.5 0
v -0.2 -0.3 0
v -0.2 -0.2 0
v -0.2 -0.1 0
v -0.2 0.3 0
v -0.2 0.4 0
v -0.2 0.5 0
v -0.1 -0.7 0
v -0.1 -0.5 0
v 0.1 -0.7 0
v 0.1 -0.5 0
v 0.2 -0.7 0
v 0.2 -0.5 0
v 0.2 -0.3 0
v 0.2 -0.2 0
v 0.2 -0.1 0
v 0.2 0.3 0
v 0.2 0.4 0
v 0.2 0.5 0
v 0.3 -0.8 0
v 0.3 -0.7 0
v 0.3 -0.6 0
v 0.3 -0.5 0
v 0.3 -0.2 0
v 0.3 -0.1 0
v 0.3 0.3 0
v 0.3 0.4 0
v 0.3 0.6 0
v 0.3 0.7 0
v 0.3 0.8 0
v 0.4 -0.5 0
v 0.4 -0.4 0
v 0.4 -0.1 0
v 0.4 0.3 0
v 0.5 -0.7 0
v 0.5 -0.6 0
v 0.5 -0.5 0
v 0.5 -0.4 0
v 0.5 -0.3 0
v 0.5 0.5 0
v 0.5 0.6 0
v 0.5 0.7 0
v 0.6 -0.6 0
v 0.6 -0.5 0
v 0.6 -0.3 0
v 0.6 -0.2 0
v 0.6 0.3 0
v 0.6 0.5 0
v 0.6 0.6 0
v 0.7 -0.5 0
v 0.7 -0.3 0
v 0.7 -0.2 0
v 0.7 0.3 0
v 0.7 0.5 0
v 0.8 -0.3 0
v 0.8 0.3 0
v -0.8 -0.3 -0.1
v -0.8 0.3 -0.1
v -0.7 -0.5 -0.1
v -0.7 -0.3 -0.1
v -0.7 -0.2 -0.1
v -0.7 0.3 -0.1
v -0.7 0.5 -0.1
v -0.6 -0.6 -0.1
v -0.6 -0.5 -0.1
v -0.6 -0.3 -0.1
v -0.6 -0.2 -0.1
v -0.6 0.3 -0.1
v -0.6 0.5 -0.1
v -0.6 0.6 -0.1
v -0.5 -0.7 -0.1
v -0.5 -0.6 -0.1
v -0.5 -0.5 -0.1
v -0.5 -0.4 -0.1
v -0.5 -0.3 -0.1
v -0.5 0.5 -0.1
v -0.5 0.6 -0.1
v -0.5 0.7 -0.1
v -0.4 -0.5 -0.1
v -0.4 -0.4 -0.1
v -0.4 -0.1 -0.1
v -0.4 0.3 -0.1
v -0.3 -0.8 -0.1
v -0.3 -0.7 -0.1
v -0.3 -0.6 -0.1
v -0.3 -0.5 -0.1
v -0.3 -0.2 -0.1
v -0.3 -0.1 -0.1
v -0.3 0.3 -0.1
v -0.3 0.4 -0.1
v -0.3 0.6 -0.1
v -0.3 0.7 -0.1
v -0.3 0.8 -0.1
v -0.2 -0.7 -0.1
v -0.2 -0.5 -0.1
v -0.2 -0.3 -0.1
v -0.2 -0.2 -0.1
v -0.2 -0.1 -0.1
v -0.2 0.3 -0.1
v -0.2 0.4 -0.1
v -0.2 0.5 -0.1
v -0.1 -0.7 -0.1
v -0.1 -0.5 -0.1
v 0.1 -0.7 -0.1
v 0.1 -0.5 -0.1
v 0.2 -0.7 -0.1
v 0.2 -0.5 -0.1
v 0.2 -0.3 -0.1
v 0.2 -0.2 -0.1
v 0.2 -0.1 -0.1
v 0.2 0.3 -0.1
v 0.2 0.4 -0.1
v 0.2 0.5 -0.1
v 0.3 -0.8 -0.1
v 0.3 -0.7 -0.1
v 0.3 -0.6 -0.1
v 0.3 -0.5 -0.1
v 0.3 -0.2 -0.1
v 0.3 -0.1 -0.1
v 0.3 0.3 -0.1
v 0.3 0.4 -0.1
v 0.3 0.6 -0.1
v 0.3 0.7 -0.1
v 0.3 0.8 -0.1
v 0.4 -0.5 -0.1
v 0.4 -0.4 -0.1
v 0.4 -0.1 -0.1
v 0.4 0.3 -0.1
v 0.5 -0.7 -0.1
v 0.5 -0.6 -0.1
v 0.5 -0.5 -0.1
v 0.5 -0.4 -0.1
v 0.5 -0.3 -0.1
v 0.5 0.5 -0.1
v 0.5 0.6 -0.1
v 0.5 0.7 -0.1
v 0.6 -0.6 -0.1
v 0.6 -0.5 -0.1
v 0.6 -0.3 -0.1
v 0.6 -0.2 -0.1
v 0.6 0.3 -0.1
v 0.6 0.5 -0.1
v 0.6 0.6 -0.1
v 0.7 -0.5 -0.1
v 0.7 -0.3 -0.1
v 0.7 -0.2 -0.1
v 0.7 0.3 -0.1
v 0.7 0.5 -0.1
v 0.8 -0.3 -0.1
v 0.8 0.3 -0.1
v -0.3 -0.8 0
v 0.3 -0.8 0
v -0.3 -0.8 -0.1
v 0.3 -0.8 -0.1
v -0.5 -0.7 0
v -0.3 -0.7 0
v 0.3 -0.7 0
v 0.5 -0.7 0
v -0.5 -0.7 -0.1
v -0.3 -0.7 -0.1
v 0.3 -0.7 -0.1
v 0.5 -0.7 -0.1
v -0.6 -0.6 0
v -0.5 -0.6 0
v 0.5 -0.6 0
v 0.6 -0.6 0
v -0.6 -0.6 -0.1
v -0.5 -0.6 -0.1
v 0.5 -0.6 -0.1
v 0.6 -0.6 -0.1
v -0.7 -0.5 0
v -0.6 -0.5 0
v 0.6 -0.5 0
v 0.7 -0.5 0
v -0.7 -0.5 -0.1
v -0.6 -0.5 -0.1
v 0.6 -0.5 -0.1
v 0.7 -0.5 -0.1
v -0.8 -0.3 0
v -0.7 -0.3 0
v 0.7 -0.3 0
v 0.8 -0.3 0
v -0.8 -0.3 -0.1
v -0.7 -0.3 -0.1
v 0.7 -0.3 -0.1
v 0.8 -0.3 -0.1
v -0.8 0.3 0
v -0.7 0.3 0
v 0.7 0.3 0
v 0.8 0.3 0
v -0.8 0.3 -0.1
v -0.7 0.3 -0.1
v 0.7 0.3 -0.1
v 0.8 0.3 -0.1
v -0.7 0.5 0
v -0.6 0.5 0
v 0.6 0.5 0
v 0.7 0.5 0
v -0.7 0.5 -0.1
v -0.6 0.5 -0.1
v 0.6 0.5 -0.1
v 0.7 0.5 -0.1
v -0.6 0.6 0
v -0.5 0.6 0
v 0.5 0.6 0
v 0.6 0.6 0
v -0.6 0.6 -0.1
v -0.5 0.6 -0.1
v 0.5 0.6 -0.1
v 0.6 0.6 -0.1
v -0.5 0.7 0
v -0.3 0.7 0
v 0.3 0.7 0
v 0.5 0.7 0
v -0.5 0.7 -0.1
v -0.3 0.7 -0.1
v 0.3 0.7 -0.1
v 0.5 0.7 -0.1
v -0.3 0.8 0
v 0.3 0.8 0
v -0.3 0.8 -0.1
v 0.3 0.8 -0.1

# faces
f 3/5/1 2/5/1 1/5/1
f 4/5/1 2/5/1 3/5/1
f 7/5/1 6/5/1 5/5/1
f 8/5/1 6/5/1 7/5/1
f 11/5/1 10/5/1 9/5/1
f 12/5/1 10/5/1 11/5/1
f 15/5/1 14/5/1 13/5/1
f 16/5/1 14/5/1 15/5/1
f 19/5/1 18/5/1 17/5/1
f 20/5/1 18/5/1 19/5/1
f 23/5/1 22/5/1 21/5/1
f 24/5/1 22/5/1 23/5/1
f 27/5/1 26/5/1 25/5/1
f 28/5/1 26/5/1 27/5/1
f 31/5/1 30/5/1 29/5/1
f 32/5/1 30/5/1 31/5/1
f 35/5/1 34/5/1 33/5/1
f 36/5/1 34/5/1 35/5/1
f 37/5/2 38/5/2 39/5/2
f 39/5/2 38/5/2 40/5/2
f 41/5/2 42/5/2 43/5/2
f 43/5/2 42/5/2 44/5/2
f 45/5/2 46/5/2 47/5/2
f 47/5/2 46/5/2 48/5/2
f 49/5/2 50/5/2 51/5/2
f 51/5/2 50/5/2 52/5/2
f 53/5/2 54/5/2 55/5/2
f 55/5/2 54/5/2 56/5/2
f 57/5/2 58/5/2 59/5/2
f 59/5/2 58/5/2 60/5/2
f 61/5/2 62/5/2 63/5/2
f 63/5/2 62/5/2 64/5/2
f 65/5/2 66/5/2 67/5/2
f 67/5/2 66/5/2 68/5/2
f 69/5/2 70/5/2 71/5/2
f 71/5/2 70/5/2 72/5/2
f 76/5/3 74/5/3 73/5/3
f 77/5/3 74/5/3 76/5/3
f 78/5/3 74/5/3 77/5/3
f 81/5/3 76/5/3 75/5/3
f 82/1/3 77/1/3 76/1/3
f 82/5/3 76/5/3 81/5/3
f 83/6/3 78/6/3 77/6/3
f 83/1/3 77/1/3 82/1/3
f 84/5/3 79/5/3 78/5/3
f 84/6/3 78/6/3 83/6/3
f 85/5/3 79/5/3 84/5/3
f 88/5/3 81/5/3 80/5/3
f 89/1/3 82/1/3 81/1/3
f 89/5/3 81/5/3 88/5/3
f 90/1/3 82/1/3 89/1/3
f 91/6/3 83/6/3 82/6/3
f 91/1/3 82/1/3 90/1/3
f 91/6/3 84/6/3 83/6/3
f 91/6/3 85/6/3 84/6/3
f 92/5/3 86/5/3 85/5/3
f 92/6/3 85/6/3 91/6/3
f 93/5/3 86/5/3 92/5/3
f 95/1/3 90/1/3 89/1/3
f 95/1/3 89/1/3 88/1/3
f 96/6/3 91/6/3 90/6/3
f 96/1/3 90/1/3 95/1/3
f 96/6/3 93/6/3 92/6/3
f 96/6/3 92/6/3 91/6/3
f 97/6/3 93/6/3 96/6/3
f 98/6/3 93/6/3 97/6/3
f 100/5/3 88/5/3 87/5/3
f 101/1/3 95/1/3 88/1/3
f 101/5/3 88/5/3 100/5/3
f 102/6/3 96/6/3 95/6/3
f 102/1/3 95/1/3 101/1/3
f 102/6/3 97/6/3 96/6/3
f 103/6/3 97/6/3 102/6/3
f 104/7/3 98/7/3 97/7/3
f 104/6/3 97/6/3 103/6/3
f 105/6/3 93/6/3 98/6/3
f 105/7/3 98/7/3 104/7/3
f 106/6/3 93/6/3 105/6/3
f 107/5/3 94/5/3 93/5/3
f 107/6/3 93/6/3 106/6/3
f 108/5/3 94/5/3 107/5/3
f 110/5/3 100/5/3 99/5/3
f 110/2/3 101/2/3 100/2/3
f 110/2/3 102/2/3 101/2/3
f 111/6/3 103/6/3 102/6/3
f 111/2/3 102/2/3 110/2/3
f 112/6/3 103/6/3 111/6/3
f 113/7/3 104/7/3 103/7/3
f 113/6/3 103/6/3 112/6/3
f 114/6/3 105/6/3 104/6/3
f 114/7/3 104/7/3 113/7/3
f 115/7/3 106/7/3 105/7/3
f 115/6/3 105/6/3 114/6/3
f 116/6/3 108/6/3 107/6/3
f 116/7/3 106/7/3 115/7/3
f 116/6/3 107/6/3 106/6/3
f 117/6/3 108/6/3 116/6/3
f 118/5/3 110/5/3 99/5/3
f 118/3/3 111/3/3 110/3/3
f 119/6/3 112/6/3 111/6/3
f 119/3/3 111/3/3 118/3/3
f 120/5/3 118/5/3 99/5/3
f 120/4/3 119/4/3 118/4/3
f 121/6/3 112/6/3 119/6/3
f 121/4/3 119/4/3 120/4/3
f 122/5/3 120/5/3 99/5/3
f 122/3/3 121/3/3 120/3/3
f 123/6/3 112/6/3 121/6/3
f 123/3/3 121/3/3 122/3/3
f 124/7/3 113/7/3 112/7/3
f 124/6/3 112/6/3 123/6/3
f 125/6/3 114/6/3 113/6/3
f 125/7/3 113/7/3 124/7/3
f 125/6/3 115/6/3 114/6/3
f 125/6/3 116/6/3 115/6/3
f 126/6/3 116/6/3 125/6/3
f 127/6/3 116/6/3 126/6/3
f 128/7/3 117/7/3 116/7/3
f 128/6/3 116/6/3 127/6/3
f 129/6/3 108/6/3 117/6/3
f 129/7/3 117/7/3 128/7/3
f 130/5/3 122/5/3 99/5/3
f 131/2/3 123/2/3 122/2/3
f 131/5/3 122/5/3 130/5/3
f 132/2/3 123/2/3 131/2/3
f 133/6/3 124/6/3 123/6/3
f 133/2/3 123/2/3 132/2/3
f 133/6/3 125/6/3 124/6/3
f 134/7/3 126/7/3 125/7/3
f 134/6/3 125/6/3 133/6/3
f 135/6/3 127/6/3 126/6/3
f 135/7/3 126/7/3 134/7/3
f 136/7/3 128/7/3 127/7/3
f 136/6/3 127/6/3 135/6/3
f 137/6/3 129/6/3 128/6/3
f 137/7/3 128/7/3 136/7/3
f 138/6/3 108/6/3 129/6/3
f 138/6/3 129/6/3 137/6/3
f 139/5/3 109/5/3 108/5/3
f 139/6/3 108/6/3 138/6/3
f 140/5/3 109/5/3 139/5/3
f 141/6/3 135/6/3 134/6/3
f 141/6/3 134/6/3 133/6/3
f 141/1/3 133/1/3 132/1/3
f 142/6/3 135/6/3 141/6/3
f 143/7/3 136/7/3 135/7/3
f 143/6/3 135/6/3 142/6/3
f 144/6/3 138/6/3 137/6/3
f 144/7/3 136/7/3 143/7/3
f 144/6/3 137/6/3 136/6/3
f 145/5/3 132/5/3 131/5/3
f 146/1/3 141/1/3 132/1/3
f 146/5/3 132/5/3 145/5/3
f 146/1/3 142/1/3 141/1/3
f 147/1/3 142/1/3 146/1/3
f 148/6/3 143/6/3 142/6/3
f 148/1/3 142/1/3 147/1/3
f 148/6/3 144/6/3 143/6/3
f 149/6/3 144/6/3 148/6/3
f 150/6/3 138/6/3 144/6/3
f 150/6/3 144/6/3 149/6/3
f 151/5/3 139/5/3 138/5/3
f 151/6/3 138/6/3 150/6/3
f 152/5/3 139/5/3 151/5/3
f 153/5/3 147/5/3 146/5/3
f 154/1/3 149/1/3 148/1/3
f 154/5/3 147/5/3 153/5/3
f 154/1/3 148/1/3 147/1/3
f 155/6/3 150/6/3 149/6/3
f 155/1/3 149/1/3 154/1/3
f 156/6/3 150/6/3 155/6/3
f 157/6/3 150/6/3 156/6/3
f 158/5/3 151/5/3 150/5/3
f 158/6/3 150/6/3 157/6/3
f 159/5/3 151/5/3 158/5/3
f 160/5/3 155/5/3 154/5/3
f 161/1/3 156/1/3 155/1/3
f 161/5/3 155/5/3 160/5/3
f 162/6/3 157/6/3 156/6/3
f 162/1/3 156/1/3 161/1/3
f 163/5/3 158/5/3 157/5/3
f 163/6/3 157/6/3 162/6/3
f 164/5/3 158/5/3 163/5/3
f 165/5/3 162/5/3 161/5/3
f 165/5/3 163/5/3 162/5/3
f 166/5/3 163/5/3 165/5/3
f 167/5/4 168/5/4 170/5/4
f 170/5/4 168/5/4 171/5/4
f 171/5/4 168/5/4 172/5/4
f 169/5/4 170/5/4 175/5/4
f 170/1/4 171/1/4 176/1/4
f 175/5/4 170/5/4 176/5/4
f 171/6/4 172/6/4 177/6/4
f 176/1/4 171/1/4 177/1/4
f 172/5/4 173/5/4 178/5/4
f 177/6/4 172/6/4 178/6/4
f 178/5/4 173/5/4 179/5/4
f 174/5/4 175/5/4 182/5/4
f 175/1/4 176/1/4 183/1/4
f 182/5/4 175/5/4 183/5/4
f 183/1/4 176/1/4 184/1/4
f 176/6/4 177/6/4 185/6/4
f 184/1/4 176/1/4 185/1/4
f 177/6/4 178/6/4 185/6/4
f 178/6/4 179/6/4 185/6/4
f 179/5/4 180/5/4 186/5/4
f 185/6/4 179/6/4 186/6/4
f 186/5/4 180/5/4 187/5/4
f 183/1/4 184/1/4 189/1/4
f 182/1/4 183/1/4 189/1/4
f 184/6/4 185/6/4 190/6/4
f 189/1/4 184/1/4 190/1/4
f 186/6/4 187/6/4 190/6/4
f 185/6/4 186/6/4 190/6/4
f 190/6/4 187/6/4 191/6/4
f 191/6/4 187/6/4 192/6/4
f 181/5/4 182/5/4 194/5/4
f 182/1/4 189/1/4 195/1/4
f 194/5/4 182/5/4 195/5/4
f 189/6/4 190/6/4 196/6/4
f 195/1/4 189/1/4 196/1/4
f 190/6/4 191/6/4 196/6/4
f 196/6/4 191/6/4 197/6/4
f 191/7/4 192/7/4 198/7/4
f 197/6/4 191/6/4 198/6/4
f 192/6/4 187/6/4 199/6/4
f 198/7/4 192/7/4 199/7/4
f 199/6/4 187/6/4 200/6/4
f 187/5/4 188/5/4 201/5/4
f 200/6/4 187/6/4 201/6/4
f 201/5/4 188/5/4 202/5/4
f 193/5/4 194/5/4 204/5/4
f 194/2/4 195/2/4 204/2/4
f 195/2/4 196/2/4 204/2/4
f 196/6/4 197/6/4 205/6/4
f 204/2/4 196/2/4 205/2/4
f 205/6/4 197/6/4 206/6/4
f 197/7/4 198/7/4 207/7/4
f 206/6/4 197/6/4 207/6/4
f 198/6/4 199/6/4 208/6/4
f 207/7/4 198/7/4 208/7/4
f 199/7/4 200/7/4 209/7/4
f 208/6/4 199/6/4 209/6/4
f 201/6/4 202/6/4 210/6/4
f 209/7/4 200/7/4 210/7/4
f 200/6/4 201/6/4 210/6/4
f 210/6/4 202/6/4 211/6/4
f 193/5/4 204/5/4 212/5/4
f 204/3/4 205/3/4 212/3/4
f 205/6/4 206/6/4 213/6/4
f 212/3/4 205/3/4 213/3/4
f 193/5/4 212/5/4 214/5/4
f 212/4/4 213/4/4 214/4/4
f 213/6/4 206/6/4 215/6/4
f 214/4/4 213/4/4 215/4/4
f 193/5/4 214/5/4 216/5/4
f 214/3/4 215/3/4 216/3/4
f 215/6/4 206/6/4 217/6/4
f 216/3/4 215/3/4 217/3/4
f 206/7/4 207/7/4 218/7/4
f 217/6/4 206/6/4 218/6/4
f 207/6/4 208/6/4 219/6/4
f 218/7/4 207/7/4 219/7/4
f 208/6/4 209/6/4 219/6/4
f 209/6/4 210/6/4 219/6/4
f 219/6/4 210/6/4 220/6/4
f 220/6/4 210/6/4 221/6/4
f 210/7/4 211/7/4 222/7/4
f 221/6/4 210/6/4 222/6/4
f 211/6/4 202/6/4 223/6/4
f 222/7/4 211/7/4 223/7/4
f 193/5/4 216/5/4 224/5/4
f 216/2/4 217/2/4 225/2/4
f 224/5/4 216/5/4 225/5/4
f 225/2/4 217/2/4 226/2/4
f 217/6/4 218/6/4 227/6/4
f 226/2/4 217/2/4 227/2/4
f 218/6/4 219/6/4 227/6/4
f 219/7/4 220/7/4 228/7/4
f 227/6/4 219/6/4 228/6/4
f 220/6/4 221/6/4 229/6/4
f 228/7/4 220/7/4 229/7/4
f 221/7/4 222/7/4 230/7/4
f 229/6/4 221/6/4 230/6/4
f 222/6/4 223/6/4 231/6/4
f 230/7/4 222/7/4 231/7/4
f 223/6/4 202/6/4 232/6/4
f 231/6/4 223/6/4 232/6/4
f 202/5/4 203/5/4 233/5/4
f 232/6/4 202/6/4 233/6/4
f 233/5/4 203/5/4 234/5/4
f 228/6/4 229/6/4 235/6/4
f 227/6/4 228/6/4 235/6/4
f 226/1/4 227/1/4 235/1/4
f 235/6/4 229/6/4 236/6/4
f 229/7/4 230/7/4 237/7/4
f 236/6/4 229/6/4 237/6/4
f 231/6/4 232/6/4 238/6/4
f 237/7/4 230/7/4 238/7/4
f 230/6/4 231/6/4 238/6/4
f 225/5/4 226/5/4 239/5/4
f 226/1/4 235/1/4 240/1/4
f 239/5/4 226/5/4 240/5/4
f 235/1/4 236/1/4 240/1/4
f 240/1/4 236/1/4 241/1/4
f 236/6/4 237/6/4 242/6/4
f 241/1/4 236/1/4 242/1/4
f 237/6/4 238/6/4 242/6/4
f 242/6/4 238/6/4 243/6/4
f 238/6/4 232/6/4 244/6/4
f 243/6/4 238/6/4 244/6/4
f 232/5/4 233/5/4 245/5/4
f 244/6/4 232/6/4 245/6/4
f 245/5/4 233/5/4 246/5/4
f 240/5/4 241/5/4 247/5/4
f 242/1/4 243/1/4 248/1/4
f 247/5/4 241/5/4 248/5/4
f 241/1/4 242/1/4 248/1/4
f 243/6/4 244/6/4 249/6/4
f 248/1/4 243/1/4 249/1/4
f 249/6/4 244/6/4 250/6/4
f 250/6/4 244/6/4 251/6/4
f 244/5/4 245/5/4 252/5/4
f 251/6/4 244/6/4 252/6/4
f 252/5/4 245/5/4 253/5/4
f 248/5/4 249/5/4 254/5/4
f 249/1/4 250/1/4 255/1/4
f 254/5/4 249/5/4 255/5/4
f 250/6/4 251/6/4 256/6/4
f 255/1/4 250/1/4 256/1/4
f 251/5/4 252/5/4 257/5/4
f 256/6/4 251/6/4 257/6/4
f 257/5/4 252/5/4 258/5/4
f 255/5/4 256/5/4 259/5/4
f 256/5/4 257/5/4 259/5/4
f 259/5/4 257/5/4 260/5/4
f 263/5/5 262/5/5 261/5/5
f 264/5/5 262/5/5 263/5/5
f 269/5/5 266/5/5 265/5/5
f 270/5/5 266/5/5 269/5/5
f 271/5/5 268/5/5 267/5/5
f 272/5/5 268/5/5 271/5/5
f 277/5/5 274/5/5 273/5/5
f 278/5/5 274/5/5 277/5/5
f 279/5/5 276/5/5 275/5/5
f 280/5/5 276/5/5 279/5/5
f 285/5/5 282/5/5 281/5/5
f 286/5/5 282/5/5 285/5/5
f 287/5/5 284/5/5 283/5/5
f 288/5/5 284/5/5 287/5/5
f 293/5/5 290/5/5 289/5/5
f 294/5/5 290/5/5 293/5/5
f 295/5/5 292/5/5 291/5/5
f 296/5/5 292/5/5 295/5/5
f 297/5/6 298/5/6 301/5/6
f 301/5/6 298/5/6 302/5/6
f 299/5/6 300/5/6 303/5/6
f 303/5/6 300/5/6 304/5/6
f 305/5/6 306/5/6 309/5/6
f 309/5/6 306/5/6 310/5/6
f 307/5/6 308/5/6 311/5/6
f 311/5/6 308/5/6 312/5/6
f 313/5/6 314/5/6 317/5/6
f 317/5/6 314/5/6 318/5/6
f 315/5/6 316/5/6 319/5/6
f 319/5/6 316/5/6 320/5/6
f 321/5/6 322/5/6 325/5/6
f 325/5/6 322/5/6 326/5/6
f 323/5/6 324/5/6 327/5/6
f 327/5/6 324/5/6 328/5/6
f 329/5/6 330/5/6 331/5/6
f 331/5/6 330/5/6 332/5/6
